<svg width="40" height="40" viewBox="0 0 40 40" fill="none" xmlns="http://www.w3.org/2000/svg">
<path d="M36.875 12.5V16.25H1.875V12.5C1.875 11.837 2.13839 11.2011 2.60723 10.7322C3.07607 10.2634 3.71196 10 4.375 10H34.375C35.038 10 35.6739 10.2634 36.1428 10.7322C36.6116 11.2011 36.875 11.837 36.875 12.5Z" fill="#6A563D"/>
<path d="M32.25 10.75C32.333 11.1192 32.375 11.4965 32.375 11.875C32.3762 12.7275 32.1585 13.566 31.7426 14.3102C31.3267 15.0544 30.7267 15.6793 30 16.125V16.1312C29.0989 16.6862 28.045 16.941 26.9899 16.8588C25.9348 16.7767 24.933 16.3619 24.1287 15.6742C23.3243 14.9864 22.7589 14.0612 22.5139 13.0317C22.2688 12.0022 22.3567 10.9215 22.765 9.94512C23.1732 8.96876 23.8807 8.1471 24.7856 7.59842C25.6906 7.04974 26.7462 6.80233 27.8007 6.89181C28.8552 6.98129 29.8541 7.40304 30.6536 8.09636C31.4532 8.78967 32.0121 9.7188 32.25 10.75Z" fill="#FECA57"/>
<path d="M17.25 10.125C17.333 10.4942 17.375 10.8715 17.375 11.25C17.3762 12.1025 17.1584 12.941 16.7426 13.6852C16.3267 14.4294 15.7267 15.0543 15 15.5V15.5062C14.0989 16.0612 13.045 16.316 11.9899 16.2338C10.9348 16.1517 9.933 15.7369 9.12866 15.0492C8.32431 14.3614 7.75892 13.4362 7.51386 12.4067C7.26881 11.3772 7.35672 10.2965 7.76496 9.32012C8.1732 8.34376 8.8807 7.5221 9.78562 6.97342C10.6906 6.42474 11.7462 6.17733 12.8007 6.26681C13.8552 6.35629 14.8541 6.77804 15.6536 7.47136C16.4532 8.16467 17.0121 9.0938 17.25 10.125Z" fill="#FECA57"/>
<path d="M8.62499 12.5C8.62543 11.5874 8.87562 10.6923 9.34844 9.9118C9.82127 9.13126 10.4987 8.49501 11.3073 8.072C12.1159 7.64899 13.0249 7.45534 13.9357 7.51206C14.8465 7.56877 15.7245 7.87368 16.4744 8.39374C16.0574 7.79132 15.5132 7.28789 14.8802 6.91905C14.2472 6.55022 13.5409 6.32499 12.8113 6.2593C12.0816 6.19362 11.3464 6.28908 10.6577 6.53894C9.96903 6.7888 9.34366 7.18695 8.82585 7.70522C8.30805 8.22349 7.91046 8.84922 7.66122 9.53813C7.41198 10.227 7.31718 10.9623 7.38352 11.6919C7.44986 12.4215 7.67572 13.1276 8.04513 13.7603C8.41453 14.393 8.91845 14.9367 9.52124 15.3531C8.9368 14.5166 8.6239 13.5205 8.62499 12.5Z" fill="#D8A852"/>
<path d="M23.625 13.125C23.6254 12.2124 23.8756 11.3173 24.3484 10.5368C24.8213 9.75626 25.4987 9.12001 26.3073 8.697C27.1159 8.27399 28.0249 8.08034 28.9357 8.13706C29.8465 8.19377 30.7245 8.49868 31.4744 9.01874C31.0574 8.41632 30.5132 7.91289 29.8802 7.54405C29.2472 7.17522 28.5409 6.94999 27.8113 6.8843C27.0816 6.81862 26.3464 6.91408 25.6577 7.16394C24.969 7.4138 24.3437 7.81195 23.8259 8.33022C23.3081 8.84849 22.9105 9.47422 22.6612 10.1631C22.412 10.852 22.3172 11.5873 22.3835 12.3169C22.4499 13.0465 22.6757 13.7526 23.0451 14.3853C23.4145 15.018 23.9185 15.5617 24.5212 15.9781C23.9368 15.1416 23.6239 14.1455 23.625 13.125Z" fill="#D8A852"/>
<path d="M24.8876 8.88658C24.9707 9.25582 25.0126 9.63312 25.0126 10.0116C25.0138 10.8641 24.7961 11.7026 24.3802 12.4468C23.9643 13.191 23.3643 13.8159 22.6376 14.2616V14.2678C21.7365 14.8228 20.6826 15.0776 19.6275 14.9954C18.5724 14.9133 17.5706 14.4985 16.7663 13.8108C15.9619 13.123 15.3965 12.1978 15.1515 11.1683C14.9064 10.1388 14.9943 9.05809 15.4026 8.08172C15.8108 7.10535 16.5183 6.2837 17.4232 5.73502C18.3282 5.18633 19.3838 4.93893 20.4383 5.02841C21.4928 5.11789 22.4917 5.53964 23.2913 6.23295C24.0908 6.92627 24.6497 7.85539 24.8876 8.88658Z" fill="#FECA57"/>
<path d="M16.2626 11.2616C16.263 10.3491 16.5132 9.45401 16.986 8.67347C17.4589 7.89293 18.1363 7.25667 18.9449 6.83366C19.7535 6.41065 20.6625 6.217 21.5733 6.27372C22.4841 6.33043 23.3621 6.63534 24.112 7.1554C23.6951 6.55281 23.1509 6.04921 22.5179 5.68024C21.8848 5.31126 21.1784 5.08592 20.4487 5.02017C19.7189 4.95442 18.9836 5.04987 18.2948 5.29975C17.606 5.54963 16.9806 5.94785 16.4627 6.46621C15.9449 6.98458 15.5473 7.61043 15.2981 8.29947C15.0489 8.98851 14.9541 9.7239 15.0206 10.4536C15.0871 11.1833 15.3131 11.8895 15.6827 12.5221C16.0523 13.1548 16.5565 13.6985 17.1595 14.1148C16.5746 13.2784 16.2614 12.2822 16.2626 11.2616Z" fill="#D8A852"/>
<path d="M38.125 16.25V33.75C38.125 34.413 37.8616 35.0489 37.3928 35.5178C36.9239 35.9866 36.288 36.25 35.625 36.25H4.375C3.71196 36.25 3.07607 35.9866 2.60723 35.5178C2.13839 35.0489 1.875 34.413 1.875 33.75V13.75H35.625C36.2875 13.7517 36.9225 14.0156 37.3909 14.4841C37.8594 14.9525 38.1233 15.5875 38.125 16.25Z" fill="#C0AB91"/>
<path d="M31.25 26.25V22.5C31.25 22.0027 31.4475 21.5258 31.7992 21.1742C32.1508 20.8225 32.6277 20.625 33.125 20.625H37.6394C37.9613 19.1889 38.1241 17.7217 38.125 16.25C38.1233 15.5875 37.8594 14.9525 37.3909 14.4841C36.9225 14.0156 36.2875 13.7517 35.625 13.75H1.875V33.75C1.875 34.413 2.13839 35.0489 2.60723 35.5178C3.07607 35.9866 3.71196 36.25 4.375 36.25H18.125C21.2565 36.2523 24.3446 35.518 27.1399 34.1066C29.9353 32.6952 32.3595 30.6462 34.2169 28.125H33.125C32.6277 28.125 32.1508 27.9275 31.7992 27.5758C31.4475 27.2242 31.25 26.7473 31.25 26.25Z" fill="#C0AB91"/>
<path d="M34.2169 28.125H38.125V20.625H37.6394C37.0345 23.3365 35.8687 25.8913 34.2169 28.125Z" fill="#EBE5DD"/>
<path d="M33.125 20.625C32.6277 20.625 32.1508 20.8225 31.7992 21.1742C31.4475 21.5258 31.25 22.0027 31.25 22.5V26.25C31.25 26.7473 31.4475 27.2242 31.7992 27.5758C32.1508 27.9275 32.6277 28.125 33.125 28.125H34.2169C35.8687 25.8913 37.0345 23.3365 37.6394 20.625H33.125Z" fill="#EBE5DD"/>
<path d="M35 25.625C35.6904 25.625 36.25 25.0654 36.25 24.375C36.25 23.6846 35.6904 23.125 35 23.125C34.3096 23.125 33.75 23.6846 33.75 24.375C33.75 25.0654 34.3096 25.625 35 25.625Z" fill="#6A563D"/>
</svg>
