<svg width="38" height="38" viewBox="0 0 38 38" fill="none" xmlns="http://www.w3.org/2000/svg">
<path fill-rule="evenodd" clip-rule="evenodd" d="M38 19C38 29.4935 29.4935 38 19 38C8.50649 38 0 29.4935 0 19C0 8.50649 8.50649 0 19 0C29.4935 0 38 8.50649 38 19Z" fill="#F7931A"/>
<path fill-rule="evenodd" clip-rule="evenodd" d="M23.3876 24.4537C23.2342 24.9814 22.8891 25.4162 22.4158 25.6781C21.9426 25.9404 21.3983 25.9981 20.8827 25.8409L15.7215 24.2676L16.8714 20.3163L22.0322 21.8898H22.0324C23.0965 22.2142 23.7046 23.3643 23.3876 24.4537ZM25.1283 16.3561C25.3842 16.8405 25.4406 17.3977 25.2872 17.9255C24.9702 19.0145 23.8459 19.6366 22.7824 19.3128H22.7822L17.6211 17.7395L18.7707 13.7881L23.9319 15.3615C24.4475 15.5187 24.8723 15.8718 25.1283 16.3561ZM27.4387 15.0767C26.8488 13.9607 25.8695 13.1466 24.6817 12.7845L23.9988 12.5765L24.9548 9.29091L22.502 8.54316L21.546 11.8287L19.4519 11.1903L20.408 7.90477L19.8205 7.72562L17.4401 7L16.5186 10.167L13.6177 9.28266L12.799 12.0966L15.6999 12.9811L12.7196 23.2234L9.8187 22.3391L9 25.1532L11.9007 26.0374L11.1231 28.7104L11.7105 28.8896L14.0909 29.6152L14.9032 26.8236L17.0022 27.4635L16.1899 30.2552L18.6328 31L19.4451 28.2082L20.1328 28.4178C20.5712 28.5513 21.0189 28.6175 21.4639 28.6175C22.2245 28.6175 22.978 28.4241 23.6658 28.0431C24.7561 27.4393 25.5513 26.4371 25.9052 25.2209C26.2773 23.9417 26.0937 22.6276 25.5019 21.5459C26.5762 20.9721 27.4323 19.9728 27.8047 18.693C28.1586 17.4768 28.0285 16.1925 27.4387 15.0767Z" fill="white"/>
</svg>
