<svg width="19" height="19" viewBox="0 0 19 19" fill="none" xmlns="http://www.w3.org/2000/svg">
<path d="M11.1803 9.4998L18.6519 2.02829C19.116 1.56449 19.116 0.811949 18.6519 0.348148C18.1877 -0.116049 17.4359 -0.116049 16.9717 0.348148L9.5002 7.81966L2.02829 0.348148C1.56409 -0.116049 0.812345 -0.116049 0.348148 0.348148C-0.116049 0.811949 -0.116049 1.56449 0.348148 2.02829L7.82006 9.4998L0.348148 16.9713C-0.116049 17.4351 -0.116049 18.1877 0.348148 18.6515C0.580246 18.8832 0.88443 18.9992 1.18822 18.9992C1.49201 18.9992 1.79619 18.8832 2.02829 18.6511L9.5002 11.1795L16.9717 18.6511C17.2038 18.8832 17.508 18.9992 17.8118 18.9992C18.1156 18.9992 18.4198 18.8832 18.6519 18.6511C19.116 18.1873 19.116 17.4347 18.6519 16.9709L11.1803 9.4998Z" fill="black"/>
</svg>
