<svg width="15" height="13" viewBox="0 0 15 13" fill="none" xmlns="http://www.w3.org/2000/svg">
    <path d="M14.8976 6.18503C13.9871 4.99217 12.8936 3.9509 11.6576 3.09987L13.7715 0.985968C13.9844 0.780431 13.9903 0.441302 13.7847 0.228483C13.5792 0.0156639 13.2401 0.0097627 13.0272 0.215299C13.0228 0.2196 13.0184 0.223994 13.0141 0.228483L10.7046 2.53578C9.72161 1.99475 8.62186 1.70061 7.5 1.67863C3.4286 1.67863 0.236322 6.00074 0.102384 6.185C-0.0341279 6.3728 -0.0341279 6.62718 0.102384 6.81498C1.01286 8.00783 2.10637 9.0491 3.34235 9.90013L1.22844 12.014C1.01562 12.2196 1.00972 12.5587 1.21526 12.7715C1.42079 12.9843 1.75992 12.9902 1.97274 12.7847C1.9772 12.7804 1.98159 12.776 1.98592 12.7715L4.29535 10.4642C5.27837 11.0052 6.37812 11.2994 7.49997 11.3214C11.5714 11.3214 14.7637 6.99926 14.8976 6.81498C15.0341 6.62721 15.0341 6.37283 14.8976 6.18503ZM4.12127 9.12284C3.02996 8.39599 2.05175 7.51223 1.21827 6.50002C2.00683 5.54484 4.5643 2.75004 7.5 2.75004C8.33524 2.76693 9.15641 2.96817 9.90479 3.33931L8.9748 4.26931C7.74434 3.45241 6.0846 3.78764 5.2677 5.0181C4.67262 5.91442 4.67262 7.08009 5.2677 7.97641L4.12127 9.12284ZM8.94642 5.81162C9.05126 6.02601 9.10622 6.26137 9.10713 6.50002C9.10713 7.38761 8.3876 8.10715 7.5 8.10715C7.26135 8.10624 7.026 8.05127 6.81161 7.94643L8.94642 5.81162ZM6.05359 7.18838C5.94875 6.97399 5.89379 6.73864 5.89288 6.49999C5.89288 5.61239 6.61241 4.89286 7.5 4.89286C7.73866 4.89377 7.97401 4.94873 8.1884 5.05357L6.05359 7.18838ZM7.5 10.25C6.66477 10.2331 5.84363 10.0318 5.09521 9.66069L6.02521 8.73069C7.25567 9.5476 8.91541 9.21236 9.73231 7.9819C10.3274 7.08558 10.3274 5.91991 9.73231 5.02359L10.8787 3.87717C11.97 4.60401 12.9483 5.48781 13.7817 6.49999C12.9931 7.45519 10.4357 10.25 7.5 10.25Z" fill="#B3B3B3"/>
</svg>
