<svg width="36" height="35" viewBox="0 0 36 35" fill="none" xmlns="http://www.w3.org/2000/svg">
<path d="M33.9417 34.0372H2.05826C0.921516 34.0372 0 33.1158 0 31.979V14.6266C0 13.4899 0.921516 12.5684 2.05826 12.5684H33.9417C35.0785 12.5684 36 13.4899 36 14.6266V31.979C36 33.1158 35.0785 34.0372 33.9417 34.0372Z" fill="#54A0FF"/>
<path d="M9.89283 24.9426H5.40324C4.73196 24.9426 4.18774 24.3983 4.18774 23.7271V20.8102C4.18774 20.1389 4.73196 19.5947 5.40324 19.5947H9.89283C10.5641 19.5947 11.1083 20.1389 11.1083 20.8102V23.7271C11.1083 24.3983 10.5641 24.9426 9.89283 24.9426Z" fill="#FECA57"/>
<path d="M7.9667 29.0973H4.45761C4.15759 29.0973 3.91431 28.8541 3.91431 28.554C3.91431 28.254 4.15752 28.0107 4.45761 28.0107H7.9667C8.26672 28.0107 8.51 28.254 8.51 28.554C8.51 28.8541 8.26672 29.0973 7.9667 29.0973Z" fill="#E7ECED"/>
<path d="M14.4893 29.0973H10.9802C10.6802 29.0973 10.4369 28.8541 10.4369 28.554C10.4369 28.254 10.6801 28.0107 10.9802 28.0107H14.4893C14.7893 28.0107 15.0326 28.254 15.0326 28.554C15.0325 28.8541 14.7893 29.0973 14.4893 29.0973Z" fill="#E7ECED"/>
<path d="M21.0118 29.0973H17.5027C17.2027 29.0973 16.9594 28.8541 16.9594 28.554C16.9594 28.254 17.2027 28.0107 17.5027 28.0107H21.0118C21.3118 28.0107 21.5551 28.254 21.5551 28.554C21.5551 28.8541 21.3118 29.0973 21.0118 29.0973Z" fill="#E7ECED"/>
<path d="M27.5344 29.0973H24.0253C23.7253 29.0973 23.482 28.8541 23.482 28.554C23.482 28.254 23.7252 28.0107 24.0253 28.0107H27.5344C27.8344 28.0107 28.0777 28.254 28.0777 28.554C28.0777 28.8541 27.8344 29.0973 27.5344 29.0973Z" fill="#E7ECED"/>
<path d="M24.4244 9.38025V0.725273C24.4244 0.324703 24.0997 0 23.6992 0H12.4459C12.0454 0 11.7207 0.324703 11.7207 0.725273V9.38018C11.7207 9.58514 11.5545 9.75122 11.3496 9.75122H9.54147C9.03254 9.75122 8.77021 10.3596 9.11952 10.7297L17.2237 19.3148C17.6844 19.8029 18.4608 19.8029 18.9215 19.3148L27.0257 10.7297C27.375 10.3596 27.1126 9.75122 26.6037 9.75122H24.7955C24.5906 9.75129 24.4244 9.58514 24.4244 9.38025Z" fill="#FECA57"/>
</svg>
