<svg width="903" height="808" viewBox="0 0 903 808" fill="none" xmlns="http://www.w3.org/2000/svg">
<path d="M679.187 307.63C638.5 377.5 561 377.5 533.222 416L416.83 412.504C415.496 398.687 402.677 377.5 360.5 377.5C295.866 377.5 252.5 350.5 239 307.63C212.039 222.014 205 220.5 108.5 177.5C12.0001 134.5 -4.5218 49.7735 2.00011 0H902.859C888.629 0 893.521 47.443 887.295 94.886C881.07 142.329 828.554 187.705 778 205.5C715.5 227.5 719.874 237.76 679.187 307.63Z" fill="#253440"/>
<path d="M490.1 749.7C565.1 749.7 625.9 742.805 625.9 734.3C625.9 725.795 565.1 718.9 490.1 718.9C415.1 718.9 354.3 725.795 354.3 734.3C354.3 742.805 415.1 749.7 490.1 749.7Z" fill="#EDEAEA"/>
<path d="M549.7 411.8C549.7 411.8 548.8 413 546.7 414.7C539.9 420.5 520.7 432.9 481.4 432.9C448.9 432.9 429.3 427.5 419.9 424C415.3 422.3 413.1 420.9 413.1 420.9C413.1 420.9 403.4 395.8 440.7 399.3C478 402.8 498.9 416.2 514.3 409.9C529.7 403.7 554.8 401.8 549.7 411.8Z" fill="#546D8B"/>
<path opacity="0.7" d="M546.6 414.8C539.8 420.6 520.6 433 481.3 433C448.8 433 429.2 427.6 419.8 424.1C419.8 424.1 403.3 400.9 440.6 404.4C477.9 407.9 498.1 418.2 514.1 413.8C528.9 409.6 548 406.2 546.6 414.8Z" fill="#546D8B"/>
<path d="M572.3 467.1C571 465.8 568.9 465.9 567.6 467.2C559.7 475.4 546.4 473.9 530.2 464.8C530.2 464.8 530.2 464.8 530.1 464.8C523.7 461.2 517.4 461.1 512.4 462.1V465.8V468.8V472C515.3 472.6 519.6 474 524.2 477.3C524.4 477.4 524.6 477.6 524.8 477.7C530.5 482.4 538.3 498.8 548.3 504.9C555.5 509.3 562.6 508.6 566.6 507.2C567.9 506.7 568.8 505.5 568.8 504.1C568.8 503.8 568.8 503.5 568.7 503.3C568.2 501.5 566.4 500.5 564.7 500.9C553.7 503.8 543.1 495.6 534 479.2C532.4 476.4 530.5 474.1 528.5 472.4C526.7 470.8 524.8 469.7 522.9 468.7C524.7 469.1 526.8 469.9 529.1 470.9C537 474.2 547.4 479.4 555.9 479.4C564.3 479.4 570 475.1 572.7 471.8C573.2 471.2 573.4 470.5 573.4 469.7C573.3 468.6 572.9 467.8 572.3 467.1Z" fill="#DA7D1D"/>
<path opacity="0.3" d="M530.2 464.8C530.1 464.7 530.2 464.7 530.2 464.8C523.7 461.2 517.5 461.1 512.4 462.1V471.9C515.3 472.5 519.6 473.9 524.2 477.2C524.4 477.3 524.6 477.5 524.8 477.6C526.5 476 527.6 474.1 528.4 472.2C526.6 470.6 524.7 469.5 522.8 468.5C524.6 468.9 526.7 469.7 529 470.7C529.7 468.5 530 466.4 530.2 464.8Z" fill="#DA7D1D"/>
<path d="M549.7 411.8C549.7 411.8 543.6 448.4 508.8 468.5C508.8 468.5 486.2 476.4 469.2 471.2C465.1 469.9 461.3 467.9 458.2 464.8C458.2 464.8 420.4 436.1 413.1 420.9C413.1 420.9 417.8 409.2 446 408.4C451.2 408.2 456.6 409 462.3 410.2C484.7 415.1 511.6 426.5 549.7 411.8Z" fill="#E3E9EF"/>
<path opacity="0.5" d="M545.1 416C545.1 416 536.7 444.8 520.6 454.1C520.6 454.1 516.4 453.7 512.4 451.6C512.4 451.6 530.2 444.5 545.1 416Z" fill="#B8B8BB"/>
<path d="M487.7 741.8C351.6 741.8 349.5 638.8 392 574.7C434.5 510.7 458.9 462.6 458.9 462.6L462.4 463.2C467.6 464.1 472.7 464.7 478 464.9C489.7 465.6 501.4 464.8 512.9 462.6C512.9 462.6 519.9 474.6 532.2 494.6C544.5 514.6 562.2 542.6 583.4 574.6C597.1 595.2 606.1 619.8 607.6 643.7C610.7 694.3 580.1 741.8 487.7 741.8Z" fill="#E3E9EF"/>
<path opacity="0.5" d="M513.2 479.2C513.2 479.2 554.3 539 578.4 580C598.8 614.7 606.4 650 587.3 674.6C587.3 674.6 601.1 637.8 571.7 582.5C558.1 556.9 522.1 509.1 513.2 479.2Z" fill="#B8B8BB"/>
<path d="M505.3 635.2V648.9H487.9V635.8C475.6 635.1 463.6 631.7 456.2 627.2L465.6 606C473.7 610.8 484.6 613.9 494.1 613.9C502.4 613.9 505.3 612.2 505.3 609.2C505.3 598.3 457.5 607.1 457.5 574.9C457.5 561 467.6 549.2 487.8 546.4V532.9H505.2V546.1C514.3 547 523.2 549.3 530.3 553.2L521.6 574.3C513.1 570 505.1 567.9 497.5 567.9C489 567.9 486.3 570.4 486.3 573.3C486.3 583.7 534.1 575 534.1 606.8C534 620.2 524.4 631.8 505.3 635.2Z" fill="#EFB643"/>
<path d="M580.5 714.5C561.5 731.1 531.6 741.8 487.8 741.8C351.7 741.8 349.6 638.8 392.1 574.7C434.6 510.7 459 462.6 459 462.6L462.5 463.2C464.3 463.5 466.2 463.8 468.1 464C471.4 464.4 474.8 464.7 478.1 464.9C478.1 464.9 469.9 523.9 435 572.6C400.1 621.3 414.8 690.1 487.8 702.8C560.8 715.5 610.7 690 607.7 643.9C609.2 670.4 601.5 696.1 580.5 714.5Z" fill="#B4BAC1"/>
<path d="M478.2 463.2C479 450.4 460.1 446.1 450.8 430.6C441.1 414.4 462.2 410.4 462.2 410.4C456.5 409.2 451.1 408.4 445.9 408.6C436.7 408.9 429.9 410.3 425.1 412.1C415.1 415.8 413 421.1 413 421.1C419.2 434.1 447.6 456.9 455.9 463.3H478.2V463.2Z" fill="#B4BAC1"/>
<path d="M520.1 466.7C520.1 468.2 519.6 469.8 518.1 471.3C518.1 471.3 485.9 461.4 453.4 473.1C453.4 473.1 451.4 470.5 451.6 466.9C451.7 465.4 452.1 463.7 453.3 461.9C453.3 461.9 484.7 453 518.5 462.1C518.5 462 520.1 464.1 520.1 466.7Z" fill="#DA7D1D"/>
<path opacity="0.3" d="M520.1 466.7C520.1 468.2 519.6 469.8 518.1 471.3C518.1 471.3 485.9 461.4 453.4 473.1C453.4 473.1 451.4 470.5 451.6 466.9C459.2 464.3 489.9 457.7 520.1 466.7Z" fill="#EDAC2F"/>
<path d="M522.4 461.7C521.7 462.5 520.6 463.2 518.4 463.2C518.4 463.2 488.8 451.8 453.2 463C453.2 463 450.9 462.9 449.6 461.2C449.1 460.6 448.8 459.7 448.8 458.6C448.8 458.6 487.6 445 523.2 459.1C523.2 459.1 523.4 460.5 522.4 461.7Z" fill="#EDAC2F"/>
<path opacity="0.3" d="M522.4 461.7C521.7 462.5 520.6 463.2 518.4 463.2C518.4 463.2 488.8 451.8 453.2 463C453.2 463 450.9 462.9 449.6 461.2C455.4 459.4 490.1 449.3 522.4 461.7Z" fill="#EDAC2F"/>
<path d="M336 761.5C364.774 761.5 388.1 757.918 388.1 753.5C388.1 749.082 364.774 745.5 336 745.5C307.226 745.5 283.9 749.082 283.9 753.5C283.9 757.918 307.226 761.5 336 761.5Z" fill="#EDEAEA"/>
<path d="M348.4 745.5H357.5L363.3 675.6L356.8 611.5L332.2 609.2L346.9 682.2C342.8 699.2 346.3 720.8 348.4 745.5Z" fill="#253440"/>
<path d="M348.1 744.9C348.1 744.9 347.6 745.7 347.6 747.2C347.6 748.8 347.8 754.2 347.8 754.2H374.4C374.4 754.2 374.5 750.1 371.1 747.8C367.7 745.6 362.6 747.8 357.6 744.3C357.6 744.4 356.2 745.6 348.1 744.9Z" fill="#546D8B"/>
<path d="M298.6 744.9C300.4 726 308.6 687.9 313.9 679.6L314 608.2L338 613.9L330.8 679.8L307.8 744.4C305.1 746 301.9 745.7 298.6 744.9Z" fill="#2C3B47"/>
<path d="M298.6 744.9C298.6 744.9 298 745.7 298 747.3C298 748.9 298 754.3 298 754.3H324.6C324.6 754.3 324.7 750.2 321.3 747.9C317.9 745.7 312.8 747.9 307.8 744.4C307.8 744.4 306.7 745.7 298.6 744.9Z" fill="#546D8B"/>
<path d="M358.2 611.8C357 613.8 353.1 615.3 349.7 616.1C349.5 616.2 349.2 616.2 349 616.3C348.4 616.4 347.8 616.5 347.3 616.6C341.7 617.5 336.1 618 330.5 618C329.5 618 328.3 617.9 327.2 617.8C327 617.8 326.7 617.7 326.5 617.7C320.6 616.8 314.1 614.3 310.8 611L315.5 589.6L306.3 536.4L318.5 532.2L319.2 532L322 531L324.2 530.3L337.1 532L339.2 532.3L339.9 532.4L349.1 533.6L358.2 611.8Z" fill="#05C0A5"/>
<path d="M348.2 501.2C348.2 501.2 358 494.8 355.2 490.8C354 489 348.7 491.4 348.7 491.4C348.7 491.4 356.1 485.7 352.5 483.6C349.3 481.8 344.8 486.4 344.8 486.4C344.8 486.4 349 481.8 345.8 480.9C341.4 479.6 336.5 485.3 329.4 485.1C322.3 485 311.8 492.9 320.1 503.5L348.2 501.2Z" fill="#35354C"/>
<path d="M335.3 523.3L334.7 530.6L334.4 533.9C330.1 536.9 323.4 532.4 323.4 532.4L323.1 521C325.1 519.7 329.9 521.6 332.9 522.5C334.3 522.9 335.3 523.3 335.3 523.3Z" fill="#EEB684"/>
<path d="M335.3 523.3L334.7 530.6C329.8 529.3 325.8 522.4 325.8 522.4L332.9 522.5C334.3 522.9 335.3 523.3 335.3 523.3Z" fill="#DC957B"/>
<path d="M349.1 504.7C349.1 504.9 349.1 505.2 349.1 505.5C348.8 510.1 347.9 515.6 347 520.2C346.1 525 341.3 528.1 336.6 527C333 526.2 328.9 525.1 325.5 523.9C324.4 523.5 323.4 522.8 322.6 522C322 521.4 321.5 520.6 321.1 519.8C320.3 518 319.7 516.1 319.3 514.1C319 512.5 318.8 510.9 318.7 509.2C318.7 509.1 318.7 509 318.7 508.9C318.7 508 318.8 507.1 318.8 506.3C319 501 319.4 496.4 319.4 496.4C326.5 488 345.8 491.8 348.5 498.2C348.6 498.3 348.6 498.4 348.6 498.6C349.1 499.9 349.3 502.1 349.1 504.7Z" fill="#EEB684"/>
<path d="M322.6 521.9C322 521.3 321.5 520.5 321.1 519.7C320.3 517.9 319.7 516 319.3 514C320.1 513.9 321.1 513.9 322.3 514.5C322.3 514.5 326.3 520.5 322.6 521.9Z" fill="#35354C"/>
<path d="M348.6 498.4C342.7 502.2 333 496.8 333 496.8C332.4 499.4 328.5 499.3 327.5 501.5C326.9 502.7 326.7 504.6 326.6 505.9C326.5 507 325.6 507.8 324.5 507.8C322 504.2 318.9 506.1 318.9 506.1C319.1 500.8 319.5 496.2 319.5 496.2C326.6 487.8 345.9 491.6 348.6 498C348.5 498.2 348.5 498.3 348.6 498.4Z" fill="#35354C"/>
<path d="M324.4 507.9C324.4 507.9 321.4 504.1 318.8 506.2C315.9 508.5 317.9 516.7 323.7 516.6L324.4 507.9Z" fill="#EEB684"/>
<path d="M349.1 533.6C349.1 533.6 366.6 568.7 370.3 579.2C370.3 579.2 389.8 579.7 398 579.2L395.8 588.8C395.8 588.8 375.6 590.9 369.1 591.4C363.1 591.8 353.8 573.5 353.8 573.5L349.1 533.6Z" fill="#05C0A5"/>
<g clip-path="url(#clip0)">
<path d="M446.106 559.483C453.506 584.383 439.406 610.583 414.506 617.983C411.106 618.983 407.706 619.583 404.306 619.883C400.006 620.183 395.806 619.883 391.706 619.083C388.106 618.383 384.506 617.183 381.206 615.583C380.206 615.083 379.206 614.583 378.206 614.083C373.906 611.683 369.906 608.583 366.506 604.883C365.806 604.183 365.206 603.383 364.606 602.683C360.806 597.983 357.906 592.583 356.006 586.483C355.806 585.883 355.706 585.383 355.506 584.783C349.206 560.383 363.206 535.283 387.606 527.983C393.606 526.183 399.606 525.683 405.506 526.183C406.606 526.283 407.806 526.483 408.906 526.583C413.806 527.383 418.406 528.983 422.806 531.283C423.806 531.783 424.706 532.283 425.606 532.883C428.906 534.883 431.906 537.283 434.606 539.983C437.406 542.783 439.806 545.983 441.906 549.583C443.406 552.183 444.606 554.983 445.606 557.883C445.806 558.383 445.906 558.883 446.106 559.483Z" fill="#F3D46A"/>
<path opacity="0.3" d="M441.906 549.483L404.306 619.783C400.006 620.083 395.806 619.783 391.706 618.983L434.606 539.983C437.406 542.783 439.806 545.983 441.906 549.483Z" fill="white"/>
<path opacity="0.3" d="M408.906 526.583L366.506 604.783C365.806 604.083 365.206 603.283 364.606 602.583L405.506 526.083C406.606 526.183 407.806 526.383 408.906 526.583Z" fill="white"/>
<path opacity="0.3" d="M425.606 532.783L381.206 615.483C380.206 614.983 379.206 614.483 378.206 613.983L422.806 531.283C423.706 531.683 424.706 532.183 425.606 532.783Z" fill="white"/>
<path d="M437.106 562.183C437.306 562.783 437.406 563.283 437.606 563.883C442.406 583.183 431.206 603.183 411.906 608.983C392.606 614.783 372.206 604.183 365.706 585.383C365.506 584.883 365.306 584.283 365.206 583.783C359.306 563.883 370.606 542.983 390.506 537.083C410.206 530.983 431.106 542.283 437.106 562.183Z" fill="#DA7D1D"/>
<path d="M437.506 563.783C442.306 583.083 431.106 603.083 411.806 608.883C411.406 608.983 410.906 609.083 410.506 609.283C406.106 610.383 401.806 610.783 397.506 610.283C393.206 609.883 389.106 608.783 385.306 606.983C384.306 606.583 383.406 606.083 382.406 605.483C378.206 603.083 374.406 599.883 371.306 595.883C370.606 594.983 369.906 593.983 369.206 592.983C367.706 590.583 366.406 587.983 365.406 585.283C360.606 565.983 371.806 545.983 391.106 540.183C393.506 539.483 396.006 538.983 398.506 538.783C399.706 538.683 401.006 538.583 402.206 538.583C407.306 538.583 412.206 539.683 416.706 541.683C417.706 542.083 418.606 542.583 419.606 543.083C423.306 545.083 426.606 547.583 429.506 550.683C432.306 553.683 434.606 557.183 436.306 561.083C436.906 562.083 437.206 562.883 437.506 563.783Z" fill="#EDAC2F"/>
<path opacity="0.2" d="M436.506 561.183L410.506 609.283C406.106 610.383 401.806 610.783 397.506 610.283L429.706 550.783C432.506 553.783 434.806 557.283 436.506 561.183Z" fill="#F6E6A4"/>
<path opacity="0.2" d="M402.406 538.583L371.406 595.883C370.706 594.983 370.006 593.983 369.306 592.983L398.606 538.683C399.906 538.683 401.106 538.583 402.406 538.583Z" fill="#F6E6A4"/>
<path opacity="0.2" d="M419.806 543.083L385.306 606.983C384.306 606.583 383.406 606.083 382.406 605.483L416.906 541.683C417.906 542.183 418.906 542.583 419.806 543.083Z" fill="#F6E6A4"/>
<path d="M372.481 573.41L375.875 572.246L381.781 589.46L378.387 590.625L372.481 573.41ZM389.021 567.735L392.415 566.57L398.322 583.785L395.739 584.671L384.75 576.677L388.362 587.203L384.968 588.367L379.061 571.152L381.643 570.266L392.624 578.236L389.021 567.735ZM402.445 563.129C404.806 562.319 407.058 562.472 409.2 563.588C411.358 564.698 412.854 566.466 413.686 568.893C414.519 571.319 414.424 573.633 413.402 575.835C412.396 578.031 410.713 579.534 408.352 580.344L401.515 582.69L395.608 565.475L402.445 563.129ZM407.238 577.098C408.73 576.586 409.774 575.677 410.371 574.373C410.963 573.052 410.986 571.597 410.44 570.007C409.894 568.416 408.986 567.289 407.714 566.626C406.436 565.947 405.051 565.863 403.559 566.375L400.116 567.556L403.795 578.279L407.238 577.098ZM429.489 573.091L427.393 570.347L420.532 572.701L420.562 576.154L416.898 577.412L417.016 558.129L421.222 556.686L433.178 571.826L429.489 573.091ZM420.525 569.157L425.247 567.537L420.473 561.314L420.525 569.157Z" fill="#DA7D1D"/>
<path d="M371.481 572.41L374.875 571.246L380.781 588.46L377.387 589.625L371.481 572.41ZM388.021 566.735L391.415 565.57L397.322 582.785L394.739 583.671L383.75 575.677L387.362 586.203L383.968 587.367L378.061 570.152L380.643 569.266L391.624 577.236L388.021 566.735ZM401.445 562.129C403.806 561.319 406.058 561.472 408.2 562.588C410.358 563.698 411.854 565.466 412.686 567.893C413.519 570.319 413.424 572.633 412.402 574.835C411.396 577.031 409.713 578.534 407.352 579.344L400.515 581.69L394.608 564.475L401.445 562.129ZM406.238 576.098C407.73 575.586 408.774 574.677 409.371 573.373C409.963 572.052 409.986 570.597 409.44 569.007C408.894 567.416 407.986 566.289 406.714 565.626C405.436 564.947 404.051 564.863 402.559 565.375L399.116 566.556L402.795 577.279L406.238 576.098ZM428.489 572.091L426.393 569.347L419.532 571.701L419.562 575.154L415.898 576.412L416.016 557.129L420.222 555.686L432.178 570.826L428.489 572.091ZM419.525 568.157L424.247 566.537L419.473 560.314L419.525 568.157Z" fill="#F3D46A"/>
</g>
<path d="M362.2 590.4C342.8 597.7 321.7 588.7 321.7 588.7C321.7 588.7 306.7 573.7 303.2 557.5C299.7 541.3 306.4 536.4 306.4 536.4C318.3 566.9 328 579.2 328 579.2C328 579.2 344.3 581.9 352 583C356.2 583.6 362.2 581.7 362.2 581.7C363 586.1 362.2 590.4 362.2 590.4Z" fill="#06A78F"/>
<path d="M362.2 581.7C362.2 581.7 365.2 578.1 366.7 578.1C368.2 578.1 369 579.9 369 579.9C369 579.9 373 578.5 374.7 580.4C376.5 582.3 377.1 594.4 362.2 590.4V581.7Z" fill="#EEB684"/>
<path d="M618 763.1C664.834 763.1 702.8 760.772 702.8 757.9C702.8 755.028 664.834 752.7 618 752.7C571.166 752.7 533.2 755.028 533.2 757.9C533.2 760.772 571.166 763.1 618 763.1Z" fill="#EDEAEA"/>
<path d="M604.6 443C604.6 443 596.4 463.5 590.2 469.8C590.2 469.8 578.6 474.5 574.2 475.1C569.7 475.7 561.1 478.1 561.1 478.1L562.2 484C562.2 484 587 482.2 593 479.5C599 476.8 607.9 458.6 607.9 458.6C607.9 458.6 609.9 450 604.6 443Z" fill="#2951CE"/>
<path d="M605.3 635.1H597L591.8 571.8L597.7 513.7L620 511.6L606.7 577.8C610.4 593.1 607.2 612.7 605.3 635.1Z" fill="#253440"/>
<path d="M605.5 634.6C605.5 634.6 606 635.3 606 636.7C606 638.1 605.9 643.1 605.9 643.1H581.8C581.8 643.1 581.7 639.3 584.8 637.3C587.9 635.3 592.5 637.3 597 634.1C597 634.1 598.2 635.2 605.5 634.6Z" fill="#546D8B"/>
<path d="M650.4 634.6C648.8 617.4 641.3 582.9 636.6 575.5V510.7L614.9 515.9L621.4 575.6L642.2 634.1C644.5 635.5 647.4 635.2 650.4 634.6Z" fill="#2C3B47"/>
<path d="M650.4 634.6C650.4 634.6 650.9 635.3 650.9 636.8C650.9 638.2 650.9 643.1 650.9 643.1H626.8C626.8 643.1 626.7 639.3 629.8 637.3C632.9 635.3 637.5 637.3 642 634.1C642 634.1 643 635.2 650.4 634.6Z" fill="#546D8B"/>
<path d="M624.8 431C624.8 431 634.3 431.1 638.6 435.1C642.9 439.1 638.7 447 634 448C629.3 449 614.6 447.2 613.1 444.6C611.6 442.1 612.6 431.2 624.8 431Z" fill="#2951CE"/>
<path d="M596.3 513.9C597.3 515.7 600.9 517 604 517.8C604.2 517.9 604.4 517.9 604.6 517.9C605.1 518 605.6 518.1 606.1 518.2C611.2 519.1 616.2 519.4 621.4 519.4C622.3 519.4 623.4 519.3 624.4 519.2C624.6 519.2 624.8 519.1 625 519.1C630.3 518.3 636.3 516 639.2 513.1L634.9 493.7L643.2 445.5L632.1 441.7L631.5 441.5L629 440.6L627 439.9L615.3 441.4L613.4 441.7L612.7 441.8L604.3 442.9L596.3 513.9Z" fill="#3463F8"/>
<path d="M623.9 448.1C632.3 448.1 634.3 440.7 634.3 440.7C634.3 440.5 634.2 440.4 634.1 440.3C633.9 440.3 633.8 440.4 633.7 440.5C633.6 440.8 631.8 447.5 623.9 447.5H623.8C623.6 447.5 623.5 447.6 623.5 447.8C623.5 448 623.6 448.1 623.8 448.1H623.9Z" fill="#2951CE"/>
<path d="M616 446.9C616.2 446.9 616.3 446.8 616.3 446.6C616.3 446.4 616.2 446.3 616 446.3C615.9 446.3 613.5 446.2 612.8 442.9C612.8 442.7 612.6 442.6 612.4 442.7C612.2 442.7 612.1 442.9 612.2 443.1C613 446.8 616 446.9 616 446.9Z" fill="#2951CE"/>
<path d="M622 477.7C622.2 477.7 622.3 477.5 622.3 477.4C621.7 469.7 624.6 450.3 624.7 450.1C624.7 449.9 624.6 449.8 624.4 449.7C624.2 449.7 624.1 449.8 624 450C624 450.2 621 469.7 621.6 477.5C621.7 477.6 621.9 477.7 622 477.7Z" fill="white"/>
<path d="M611.8 476.1C611.8 476.1 611.9 476.1 611.8 476.1C612 476.1 612.1 475.9 612.1 475.8C611.5 468.1 614.5 448.5 614.6 448.3C614.6 448.1 614.5 448 614.3 447.9C614.1 447.9 614 448 613.9 448.2C613.9 448.4 610.8 468.1 611.4 475.8C611.5 476 611.7 476.1 611.8 476.1Z" fill="white"/>
<path d="M602.9 410.6C602.9 410.6 600.2 412.8 601.7 417.9C603.2 423 605.3 423.4 605.3 423.4C605.3 423.4 607.3 411.6 602.9 410.6Z" fill="#35354C"/>
<path d="M616.6 434.4L617.8 440.9L618.3 443.9C622.4 446.2 628.1 441.6 628.1 441.6L627.4 431.2C625.5 430.2 621.3 432.3 618.7 433.4C617.5 434 616.6 434.4 616.6 434.4Z" fill="#EEB684"/>
<path d="M616.6 434.4L618.1 442.6C623.5 441.1 625.1 432.8 625.1 432.8L618.7 433.5C617.5 434 616.6 434.4 616.6 434.4Z" fill="#DC957B"/>
<path d="M602.5 419.1C602.5 419.3 602.5 419.6 602.6 419.8C602.9 421.8 603.3 424.1 603.7 426.3C603.8 426.8 603.9 427.2 604 427.7C604.1 428.1 604.2 428.5 604.3 428.9C604.5 429.7 604.7 430.5 604.9 431.3C605 431.8 605.2 432.4 605.3 432.9C605.4 433.3 605.5 433.6 605.7 434C606.2 435.1 606.8 436 607.6 436.7C609.6 438.5 612.4 439.3 615.2 438.4C617.5 437.7 619.9 436.9 622.2 436C622.3 436 622.4 435.9 622.5 435.9C624.3 435.2 626.1 434.4 627.5 433.7C627.7 433.4 627.8 433.1 628 432.8C629.3 430.2 629.9 427.5 630.2 424.6C630.3 423.5 630.4 422.3 630.4 421.2C630.4 421.1 630.4 421 630.4 420.9C629.9 415.2 629 409.6 629 409.6C622 402.4 604.8 407 602.7 413C602.2 414.3 602.2 416.5 602.5 419.1Z" fill="#EEB684"/>
<path d="M628 432.8C629.3 430.2 629.9 427.4 630.2 424.6C629.4 424.7 628.3 425 626.9 425.8C626.9 425.9 627 430 628 432.8Z" fill="#35354C"/>
<path d="M630.2 418.5C630.2 418.5 627.2 416.9 625.2 420.4L623.4 420.6C623.4 420.6 623.2 416.8 622.1 414.9C621 412.9 617.5 413.3 616.8 411C616.8 411 608.3 416.4 602.7 413.4C596.5 410 614.2 399.8 623.4 403.3C630.5 406 630.9 412 630.2 418.5Z" fill="#35354C"/>
<path d="M625.1 420.4C625.1 420.4 627.6 416.7 630.1 418.5C632.9 420.4 631.6 428 626.3 428.3L625.1 420.4Z" fill="#EEB684"/>
<path d="M612.4 403.6C612.4 403.6 607.2 404.9 602.4 403.4C597.3 401.7 595.5 411.6 601.6 412.9C607.8 414.1 612.4 403.6 612.4 403.6Z" fill="#35354C"/>
<g clip-path="url(#clip1)">
<path d="M597.648 511.058C587.694 535.052 560.232 546.5 536.238 536.546C532.969 535.179 529.951 533.501 527.123 531.59C523.596 529.112 520.525 526.232 517.847 523.026C515.493 520.213 513.455 517.012 511.903 513.689C511.442 512.671 510.981 511.652 510.52 510.634C508.695 506.06 507.544 501.132 507.238 496.116C507.136 495.131 507.174 494.132 507.15 493.21C507.163 487.166 508.316 481.147 510.687 475.214C510.91 474.622 511.148 474.171 511.371 473.579C521.863 450.667 548.555 440.009 572.097 449.726C577.889 452.111 582.862 455.506 587.127 459.613C587.917 460.384 588.723 461.296 589.514 462.067C592.813 465.777 595.375 469.919 597.34 474.479C597.801 475.497 598.185 476.453 598.505 477.486C599.806 481.119 600.621 484.873 601.015 488.671C601.423 492.61 601.269 496.607 600.629 500.725C600.155 503.689 599.321 506.619 598.269 509.501C598.109 510.015 597.871 510.466 597.648 511.058Z" fill="#F3D46A"/>
<path opacity="0.3" d="M600.692 500.648L527.186 531.513C523.659 529.035 520.588 526.154 517.91 522.948L601.015 488.671C601.423 492.61 601.269 496.607 600.692 500.648Z" fill="white"/>
<path opacity="0.3" d="M589.514 462.067L507.301 496.038C507.199 495.054 507.237 494.055 507.213 493.133L587.19 459.536C587.98 460.307 588.786 461.219 589.514 462.067Z" fill="white"/>
<path opacity="0.3" d="M598.568 477.408L511.966 513.612C511.505 512.593 511.044 511.575 510.583 510.556L597.34 474.479C597.787 475.357 598.248 476.375 598.568 477.408Z" fill="white"/>
<path d="M588.96 507.48C588.737 508.072 588.499 508.523 588.276 509.115C579.835 527.122 558.532 535.586 539.894 527.921C521.256 520.255 512.104 499.166 518.91 480.475C519.07 479.961 519.293 479.369 519.531 478.918C527.497 459.751 549.444 450.652 568.611 458.618C587.749 466.302 596.848 488.25 588.96 507.48Z" fill="#DA7D1D"/>
<path d="M588.262 508.974C579.82 526.981 558.517 535.445 539.879 527.78C539.506 527.605 539.055 527.368 538.618 527.271C534.509 525.351 530.919 522.95 527.897 519.851C524.811 516.83 522.322 513.391 520.507 509.598C519.983 508.658 519.6 507.702 519.202 506.606C517.454 502.095 516.522 497.215 516.638 492.156C516.662 491.016 516.749 489.799 516.836 488.581C517.184 485.772 517.814 482.935 518.74 480.208C527.182 462.201 548.485 453.737 567.123 461.402C569.427 462.372 571.683 463.56 573.749 464.981C574.744 465.66 575.816 466.402 576.748 467.158C580.706 470.373 583.816 474.317 586.049 478.706C586.573 479.647 586.956 480.602 587.417 481.621C589.028 485.506 590.014 489.527 590.31 493.762C590.593 497.856 590.171 502.023 589.032 506.122C588.868 507.276 588.596 508.086 588.262 508.974Z" fill="#EDAC2F"/>
<path opacity="0.2" d="M589.125 506.325L538.618 527.271C534.509 525.351 530.919 522.95 527.897 519.851L590.403 493.965C590.685 498.059 590.264 502.226 589.125 506.325Z" fill="#F6E6A4"/>
<path opacity="0.2" d="M576.903 467.284L516.715 492.219C516.739 491.079 516.826 489.862 516.913 488.644L573.89 464.966C574.899 465.786 575.894 466.465 576.903 467.284Z" fill="#F6E6A4"/>
<path opacity="0.2" d="M587.572 481.747L520.507 509.598C519.983 508.657 519.6 507.702 519.202 506.606L586.204 478.832C586.665 479.851 587.189 480.791 587.572 481.747Z" fill="#F6E6A4"/>
<path d="M531.718 475.452L535.086 476.688L528.818 493.775L525.45 492.539L531.718 475.452ZM548.135 481.475L551.504 482.711L545.236 499.797L542.673 498.857L539.182 485.723L535.35 496.171L531.981 494.935L538.249 477.848L540.812 478.789L544.312 491.898L548.135 481.475ZM561.459 486.363C563.802 487.222 565.454 488.76 566.413 490.977C567.388 493.2 567.434 495.515 566.551 497.924C565.667 500.332 564.135 502.068 561.954 503.133C559.788 504.203 557.534 504.309 555.191 503.449L548.405 500.96L554.673 483.873L561.459 486.363ZM556.373 500.227C557.854 500.77 559.237 500.724 560.523 500.088C561.814 499.435 562.75 498.32 563.329 496.742C563.908 495.163 563.913 493.716 563.343 492.399C562.78 491.066 561.758 490.128 560.277 489.585L556.86 488.331L552.956 498.974L556.373 500.227ZM576.171 511.145L576.274 507.694L569.464 505.196L567.31 507.895L563.673 506.561L575.922 491.668L580.096 493.199L579.832 512.489L576.171 511.145ZM571.693 502.441L576.379 504.16L576.597 496.319L571.693 502.441Z" fill="#DA7D1D"/>
<path d="M531.572 474.046L534.94 475.281L528.672 492.368L525.304 491.132L531.572 474.046ZM547.989 480.068L551.358 481.304L545.09 498.391L542.527 497.45L539.036 484.317L535.204 494.764L531.835 493.528L538.103 476.442L540.666 477.382L544.166 490.491L547.989 480.068ZM561.313 484.956C563.656 485.816 565.308 487.354 566.267 489.57C567.243 491.793 567.289 494.109 566.405 496.517C565.522 498.925 563.989 500.662 561.808 501.726C559.643 502.797 557.388 502.902 555.045 502.043L548.259 499.553L554.527 482.467L561.313 484.956ZM556.227 498.821C557.708 499.364 559.091 499.317 560.377 498.681C561.669 498.029 562.604 496.913 563.183 495.335C563.762 493.756 563.767 492.309 563.198 490.992C562.634 489.659 561.612 488.721 560.131 488.178L556.714 486.924L552.81 497.567L556.227 498.821ZM576.025 509.739L576.128 506.287L569.318 503.789L567.164 506.488L563.527 505.154L575.776 490.261L579.95 491.793L579.686 511.082L576.025 509.739ZM571.547 501.034L576.234 502.753L576.451 494.913L571.547 501.034Z" fill="#F3D46A"/>
</g>
<path d="M593.1 504.2C613.9 506.9 633.7 495.9 633.7 495.9C633.7 495.9 646.6 479.9 648.5 463.6C650.4 447.2 643.4 445.5 643.4 445.5C634.5 476.7 628.2 487.5 628.2 487.5C628.2 487.5 616.8 493.5 604.7 495.4C598.8 496.3 592.4 496.4 592.4 496.4C592 500.9 593.1 504.2 593.1 504.2Z" fill="#2951CE"/>
<path d="M592.3 496.5C592.3 496.5 588.9 492.3 587.5 492.5C586 492.6 585.3 494.5 585.3 494.5C585.3 494.5 581.3 493.5 579.7 495.5C578.1 497.5 578.6 509.6 593 504.2L592.3 496.5Z" fill="#EEB684"/>
<path d="M621.1 646.6L649.1 756.2C649.3 757.2 648.8 757.9 647.8 757.9C646.8 757.9 645.9 757.1 645.6 756.2L617.6 646.6H621.1Z" fill="#252533"/>
<path d="M666.9 646.6L694.9 756.2C695.1 757.2 694.6 757.9 693.6 757.9C692.6 757.9 691.7 757.1 691.4 756.2L663.4 646.6H666.9Z" fill="#252533"/>
<path d="M619 646.6H665.5C666.3 646.8 667.1 647.5 667.3 648.3C667.5 649.3 667 650 666 650H620.2C619.2 650 618.3 649.2 618 648.3C617.8 647.4 618.2 646.7 619 646.6Z" fill="#252533"/>
<path d="M671.5 671.8H625.7C624.7 671.8 623.8 671 623.5 670.1C623.3 669.1 623.8 668.4 624.8 668.4H670.6C671.6 668.4 672.5 669.2 672.8 670.1C673.1 671.1 672.5 671.8 671.5 671.8Z" fill="#252533"/>
<path d="M677.1 693.7H631.3C630.3 693.7 629.4 692.9 629.1 692C628.9 691 629.4 690.3 630.4 690.3H676.2C677.2 690.3 678.1 691.1 678.4 692C678.7 692.9 678.1 693.7 677.1 693.7Z" fill="#252533"/>
<path d="M682.7 715.5H637C636 715.5 635.1 714.7 634.8 713.7C634.6 712.7 635.1 711.9 636.1 711.9H681.9C682.9 711.9 683.8 712.7 684.1 713.7C684.3 714.7 683.7 715.5 682.7 715.5Z" fill="#252533"/>
<path d="M688.3 737.4H642.5C641.5 737.4 640.6 736.6 640.3 735.7C640.1 734.7 640.6 734 641.6 734H687.4C688.4 734 689.3 734.8 689.6 735.7C689.9 736.6 689.3 737.4 688.3 737.4Z" fill="#252533"/>
<path d="M620.2 646.6H623.7L595.7 756.2C595.5 757.2 594.5 757.9 593.5 757.9C592.5 757.9 592 757.1 592.2 756.2L620.2 646.6Z" fill="#35354C"/>
<path d="M546.4 756.1L574.4 646.5H577.9L549.9 756.1C549.7 757.1 548.7 757.8 547.7 757.8C546.7 757.9 546.1 757.1 546.4 756.1Z" fill="#35354C"/>
<path d="M575.8 646.6H622.3C623 646.8 623.5 647.5 623.2 648.3C623 649.3 622 650 621 650H575.2C574.2 650 573.7 649.2 573.9 648.3C574.2 647.4 575 646.7 575.8 646.6Z" fill="#252533"/>
<path d="M574.4 650H668.2C669.3 650 670.2 649.1 670.2 648V645C670.2 643.9 669.3 643 668.2 643H574.4C573.3 643 572.4 643.9 572.4 645V648C572.4 649.1 573.3 650 574.4 650Z" fill="#35354C"/>
<path d="M569.7 671.8H615.5C616.5 671.8 617.4 671 617.7 670.1C617.9 669.1 617.4 668.4 616.4 668.4H570.6C569.6 668.4 568.7 669.2 568.4 670.1C568.2 671.1 568.8 671.8 569.7 671.8Z" fill="#35354C"/>
<path d="M564.1 693.7H609.9C610.9 693.7 611.8 692.9 612.1 692C612.3 691 611.8 690.3 610.8 690.3H565C564 690.3 563.1 691.1 562.8 692C562.6 692.9 563.2 693.7 564.1 693.7Z" fill="#35354C"/>
<path d="M558.6 715.5H604.4C605.4 715.5 606.3 714.7 606.6 713.7C606.8 712.7 606.3 711.9 605.3 711.9H559.5C558.5 711.9 557.6 712.7 557.3 713.7C557 714.7 557.6 715.5 558.6 715.5Z" fill="#35354C"/>
<path d="M553 737.4H598.8C599.8 737.4 600.7 736.6 601 735.7C601.2 734.7 600.7 734 599.7 734H553.9C552.9 734 552 734.8 551.7 735.7C551.4 736.6 552 737.4 553 737.4Z" fill="#35354C"/>
<path opacity="0.3" fill-rule="evenodd" clip-rule="evenodd" d="M629.76 183.028C618.237 167.972 613.371 144.953 619.146 126.199C624.685 108.211 641.448 96.64 658.813 88.6869C675.578 81.0081 694.337 77.0587 710.519 84.3485C726.937 91.7452 737.279 107.696 740.392 125.439C743.425 142.722 737.377 160.134 726.363 174.643C714.56 190.191 694.917 205.319 675.698 206.296C655.824 207.306 641.448 198.3 629.76 183.028Z" fill="#2E3E4A"/>
<path opacity="0.3" fill-rule="evenodd" clip-rule="evenodd" d="M392.603 295.802C383.329 283.674 379.675 264.93 384.736 249.506C389.591 234.711 403.61 224.987 418.067 218.211C432.026 211.669 447.572 208.144 460.813 213.85C474.249 219.639 482.534 232.518 484.824 246.976C487.055 261.059 481.789 275.39 472.47 287.427C462.483 300.325 446.032 313.003 430.154 314.104C413.734 315.243 402.01 308.105 392.603 295.802Z" fill="#2E3E4A"/>
<path opacity="0.3" fill-rule="evenodd" clip-rule="evenodd" d="M445.033 63.0165C450.232 52.8946 461.681 44.4402 473.684 42.9147C485.197 41.4515 496.226 47.7788 505.411 55.3444C514.28 62.649 521.624 71.9875 522.018 82.7262C522.417 93.6224 516.397 103.318 507.396 109.484C498.629 115.49 487.297 116.529 476.214 114.104C464.337 111.506 450.541 104.486 444.722 94.1488C438.704 83.4592 439.759 73.2841 445.033 63.0165Z" fill="#2E3E4A"/>
<path opacity="0.3" fill-rule="evenodd" clip-rule="evenodd" d="M187.062 117.189C171.874 103.542 159.481 83.2221 157.657 67.0827C155.906 51.6021 165.992 42.2087 177.886 36.0015C189.369 30.0085 203.885 27.3592 220.243 34.4198C236.842 41.584 251.348 55.9626 260.359 71.5977C269.136 86.8285 270.247 101.783 266.099 113.99C261.653 127.07 250.399 139.449 234.427 139.481C217.91 139.515 202.469 131.032 187.062 117.189Z" fill="#2E3E4A"/>
<path d="M318.48 260.68C311.342 259.996 306.073 253.861 306.73 246.998C306.073 253.861 299.736 258.885 292.598 258.202C299.736 258.885 305.005 265.021 304.348 271.884C305.01 264.971 311.342 259.996 318.48 260.68Z" fill="#FAFBFB"/>
<path d="M408.226 178.5C404.667 178.16 402.034 174.969 402.375 171.41C402.034 174.969 398.843 177.602 395.285 177.261C398.843 177.602 401.476 180.793 401.136 184.351C401.476 180.793 404.667 178.16 408.226 178.5Z" fill="#FAFBFB"/>
<path d="M467.491 311.699C464.167 311.381 461.777 308.427 462.09 305.155C461.772 308.479 458.818 310.869 455.546 310.556C458.869 310.874 461.26 313.828 460.946 317.1C461.265 313.776 464.219 311.386 467.491 311.699Z" fill="#FAFBFB"/>
<path d="M169.385 107.457C165.256 113.32 157.317 114.859 151.679 110.889C157.317 114.859 158.543 122.852 154.414 128.715C158.543 122.852 166.482 121.313 172.119 125.283C166.442 121.285 165.256 113.32 169.385 107.457Z" fill="#FAFBFB"/>
<path d="M104.8 16.7426C102.741 19.6655 98.6657 20.3728 95.7427 18.3144C98.6657 20.3728 99.373 24.4485 97.3146 27.3714C99.373 24.4485 103.449 23.7412 106.372 25.7996C103.449 23.7412 102.741 19.6655 104.8 16.7426Z" fill="#FAFBFB"/>
<path d="M331.815 59.4547C329.892 62.1848 326.142 62.7982 323.455 60.9056C326.185 62.8282 326.798 66.5785 324.906 69.2659C326.828 66.5358 330.579 65.9224 333.266 67.815C330.536 65.8924 329.922 62.1421 331.815 59.4547Z" fill="#FAFBFB"/>
<path d="M658.833 72.0623C659.509 64.9236 665.639 59.6484 672.503 60.2982C665.639 59.6484 660.608 53.3168 661.284 46.178C660.608 53.3168 654.478 58.5919 647.614 57.9421C654.528 58.5966 659.509 64.9236 658.833 72.0623Z" fill="#FAFBFB"/>
<path d="M752.471 137.555C752.808 133.996 755.996 131.359 759.555 131.696C755.996 131.359 753.359 128.172 753.696 124.613C753.359 128.172 750.172 130.808 746.613 130.471C750.172 130.808 752.808 133.996 752.471 137.555Z" fill="#FAFBFB"/>
<path d="M594.973 222.125C595.288 218.801 598.24 216.408 601.512 216.718C598.188 216.403 595.794 213.451 596.104 210.179C595.789 213.503 592.838 215.896 589.565 215.587C592.89 215.901 595.283 218.853 594.973 222.125Z" fill="#FAFBFB"/>
<defs>
<clipPath id="clip0">
<rect width="95" height="94" fill="white" transform="translate(354 526)"/>
</clipPath>
<clipPath id="clip1">
<rect width="95" height="94" fill="white" transform="translate(547.261 427) rotate(39.0826)"/>
</clipPath>
</defs>
</svg>
