<?xml version="1.0" encoding="UTF-8" standalone="no"?><!-- Generator: Gravit.io --><svg xmlns="http://www.w3.org/2000/svg" xmlns:xlink="http://www.w3.org/1999/xlink" style="isolation:isolate" viewBox="0 0 185 185" width="185pt" height="185pt"><defs><clipPath id="_clipPath_xnYcAzmBrXrEbJwt9SRaDSDIpP6ni6Xq"><rect width="185" height="185"/></clipPath></defs><g clip-path="url(#_clipPath_xnYcAzmBrXrEbJwt9SRaDSDIpP6ni6Xq)"><rect x="0" y="0" width="185" height="185" transform="matrix(1,0,0,1,0,0)" fill="rgb(20,163,239)"/><g><g><g style="opacity:0.28;"><g opacity="0.28"><path d=" M 95 81.55 L 109.6 113.05 L 119.4 113.05 L 104.7 81.55 L 95 81.55" fill="rgb(240,251,244)"/></g></g></g><g><g style="opacity:0.28;"><g opacity="0.28"><path d=" M 65.6 81.55 L 80.2 113.05 L 90 113.05 L 75.3 81.55 L 65.6 81.55" fill="rgb(240,251,244)"/></g></g></g><g opacity="0.85"><path d=" M 104.6 81.55 L 90 113.05 L 80.2 113.05 L 94.9 81.55 L 104.6 81.55" fill="rgb(255,255,255)"/></g><g opacity="0.85"><path d=" M 75.3 81.55 L 60.7 113.05 L 50.9 113.05 L 65.6 81.55 L 75.3 81.55" fill="rgb(255,255,255)"/></g><g opacity="0.85"><path d=" M 134.1 81.55 L 119.4 113.05 L 109.6 113.05 L 124.3 81.55 L 134.1 81.55" fill="rgb(255,255,255)"/></g><g opacity="0.85"><path d=" M 79.8 71.95 L 76.8 78.35 L 67.1 78.35 L 70.1 71.95 L 79.8 71.95" fill="rgb(255,255,255)"/></g></g></g></svg>