<?xml version="1.0" encoding="UTF-8" standalone="no"?><!-- Generator: Gravit.io --><svg xmlns="http://www.w3.org/2000/svg" xmlns:xlink="http://www.w3.org/1999/xlink" style="isolation:isolate" viewBox="0 0 185 85" width="185pt" height="85pt"><defs><clipPath id="_clipPath_dl5BgvmjQnfqghX6eW8kFUsgGqxjg0VK"><rect width="185" height="85"/></clipPath></defs><g clip-path="url(#_clipPath_dl5BgvmjQnfqghX6eW8kFUsgGqxjg0VK)"><rect x="0" y="0" width="185" height="85" transform="matrix(1,0,0,1,0,0)" fill="rgb(20,163,239)"/><g><g><g style="opacity:0.28;"><g opacity="0.28"><path d=" M 95 31.55 L 109.6 63.05 L 119.4 63.05 L 104.7 31.55 L 95 31.55" fill="rgb(240,251,244)"/></g></g></g><g><g style="opacity:0.28;"><g opacity="0.28"><path d=" M 65.6 31.55 L 80.2 63.05 L 90 63.05 L 75.3 31.55 L 65.6 31.55" fill="rgb(240,251,244)"/></g></g></g><g opacity="0.85"><path d=" M 104.6 31.55 L 90 63.05 L 80.2 63.05 L 94.9 31.55 L 104.6 31.55" fill="rgb(255,255,255)"/></g><g opacity="0.85"><path d=" M 75.3 31.55 L 60.7 63.05 L 50.9 63.05 L 65.6 31.55 L 75.3 31.55" fill="rgb(255,255,255)"/></g><g opacity="0.85"><path d=" M 134.1 31.55 L 119.4 63.05 L 109.6 63.05 L 124.3 31.55 L 134.1 31.55" fill="rgb(255,255,255)"/></g><g opacity="0.85"><path d=" M 79.8 21.95 L 76.8 28.35 L 67.1 28.35 L 70.1 21.95 L 79.8 21.95" fill="rgb(255,255,255)"/></g></g></g></svg>