<svg width="12" height="14" viewBox="0 0 12 14" fill="none" xmlns="http://www.w3.org/2000/svg">
    <path d="M8.00971 2.44849H1.50141C0.890721 2.44849 0.394714 2.94449 0.394714 3.55518V12.8933C0.394714 13.504 0.890721 14 1.50141 14H8.00971C8.62039 14 9.1164 13.504 9.1164 12.8933V3.55518C9.11353 2.94449 8.61753 2.44849 8.00971 2.44849ZM8.33942 12.8904C8.33942 13.0739 8.19033 13.223 8.00684 13.223H1.49854C1.31505 13.223 1.16596 13.0739 1.16596 12.8904V3.55518C1.16596 3.37169 1.31505 3.2226 1.49854 3.2226H8.00684C8.19033 3.2226 8.33942 3.37169 8.33942 3.55518V12.8904Z" fill="#737373"/>
    <path d="M10.4984 0H3.99012C3.37943 0 2.88342 0.496006 2.88342 1.1067C2.88342 1.32173 3.05545 1.49375 3.27048 1.49375C3.48551 1.49375 3.65754 1.32173 3.65754 1.1067C3.65754 0.923203 3.80663 0.774114 3.99012 0.774114H10.4984C10.6819 0.774114 10.831 0.923203 10.831 1.1067V10.4448C10.831 10.6283 10.6819 10.7774 10.4984 10.7774C10.2834 10.7774 10.1114 10.9494 10.1114 11.1644C10.1114 11.3795 10.2834 11.5515 10.4984 11.5515C11.1091 11.5515 11.6051 11.0555 11.6051 10.4448V1.1067C11.6051 0.496006 11.1091 0 10.4984 0Z" fill="#737373"/>
</svg>
